<?xml version="1.0" encoding="UTF-8"?> <svg xmlns="http://www.w3.org/2000/svg" width="722" height="721" viewBox="0 0 722 721" fill="none"><path d="M113.938 113.079L361.001 10.7424L608.065 113.079L710.401 360.142L608.065 607.205L361.001 709.542L113.938 607.205L11.6016 360.142L113.938 113.079Z" stroke="white" stroke-width="3.2002"></path><path d="M361.001 13.4644L263.218 253.479" stroke="white" stroke-width="3.2002"></path><path d="M361.001 13.4644L458.785 253.479" stroke="white" stroke-width="3.2002"></path><path d="M361.001 706.824L458.785 466.81" stroke="white" stroke-width="3.2002"></path><path d="M361.001 706.824L263.218 466.81" stroke="white" stroke-width="3.2002"></path><path d="M14.313 360.131L254.327 457.915" stroke="white" stroke-width="3.2002"></path><path d="M14.313 360.157L254.327 262.373" stroke="white" stroke-width="3.2002"></path><path d="M707.689 360.157L467.675 262.373" stroke="white" stroke-width="3.2002"></path><path d="M707.689 360.131L467.675 457.915" stroke="white" stroke-width="3.2002"></path><path d="M115.854 115L216.427 353.859" stroke="white" stroke-width="3.2002"></path><path d="M115.856 115.022L354.715 215.595" stroke="white" stroke-width="3.2002"></path><path d="M606.144 605.289L505.572 366.429" stroke="white" stroke-width="3.2002"></path><path d="M606.146 605.299L367.287 504.727" stroke="white" stroke-width="3.2002"></path><path d="M115.856 605.299L354.715 504.727" stroke="white" stroke-width="3.2002"></path><path d="M115.854 605.289L216.427 366.429" stroke="white" stroke-width="3.2002"></path><path d="M606.146 115.022L367.287 215.595" stroke="white" stroke-width="3.2002"></path><path d="M606.144 115L505.572 353.859" stroke="white" stroke-width="3.2002"></path><path d="M361 202.374L316.81 310.842" stroke="white" stroke-width="3.2002"></path><path d="M360.998 202.374L405.189 310.842" stroke="white" stroke-width="3.2002"></path><path d="M360.998 515.737L405.189 407.269" stroke="white" stroke-width="3.2002"></path><path d="M361 515.737L316.81 407.269" stroke="white" stroke-width="3.2002"></path><path d="M204.324 359.031L312.792 403.221" stroke="white" stroke-width="3.2002"></path><path d="M204.324 359.046L312.792 314.856" stroke="white" stroke-width="3.2002"></path><path d="M517.675 359.046L409.207 314.856" stroke="white" stroke-width="3.2002"></path><path d="M517.675 359.031L409.207 403.221" stroke="white" stroke-width="3.2002"></path><path d="M250.214 248.267L295.665 356.213" stroke="white" stroke-width="3.2002"></path><path d="M250.214 248.247L358.16 293.698" stroke="white" stroke-width="3.2002"></path><path d="M471.785 469.844L426.334 361.898" stroke="white" stroke-width="3.2002"></path><path d="M471.785 469.831L363.839 424.38" stroke="white" stroke-width="3.2002"></path><path d="M250.214 469.831L358.16 424.38" stroke="white" stroke-width="3.2002"></path><path d="M250.214 469.844L295.665 361.898" stroke="white" stroke-width="3.2002"></path><path d="M471.785 248.247L363.839 293.698" stroke="white" stroke-width="3.2002"></path><path d="M471.785 248.267L426.334 356.213" stroke="white" stroke-width="3.2002"></path><circle cx="360.999" cy="13.4664" r="11.734" transform="rotate(90 360.999 13.4664)" fill="white" stroke="white" stroke-width="3.2002"></circle><circle cx="360.999" cy="706.826" r="11.734" transform="rotate(90 360.999 706.826)" fill="white" stroke="white" stroke-width="3.2002"></circle><circle cx="707.688" cy="360.161" r="11.734" transform="rotate(-180 707.688 360.161)" fill="white" stroke="white" stroke-width="3.2002"></circle><circle cx="14.3119" cy="360.161" r="11.734" transform="rotate(-180 14.3119 360.161)" fill="white" stroke="white" stroke-width="3.2002"></circle><circle cx="606.146" cy="605.316" r="11.734" transform="rotate(-135 606.146 605.316)" fill="white" stroke="white" stroke-width="3.2002"></circle><circle cx="115.854" cy="115.015" r="11.734" transform="rotate(-135 115.854 115.015)" fill="white" stroke="white" stroke-width="3.2002"></circle><circle cx="115.856" cy="605.295" r="11.734" transform="rotate(-45 115.856 605.295)" fill="white" stroke="white" stroke-width="3.2002"></circle><circle cx="606.144" cy="114.995" r="11.734" transform="rotate(-45 606.144 114.995)" fill="white" stroke="white" stroke-width="3.2002"></circle><circle cx="360.999" cy="215.708" r="11.734" transform="rotate(90 360.999 215.708)" fill="white" stroke="white" stroke-width="3.2002"></circle><circle cx="360.999" cy="504.617" r="11.734" transform="rotate(90 360.999 504.617)" fill="white" stroke="white" stroke-width="3.2002"></circle><circle cx="505.453" cy="360.161" r="11.734" transform="rotate(-180 505.453 360.161)" fill="white" stroke="white" stroke-width="3.2002"></circle><circle cx="216.546" cy="360.161" r="11.734" transform="rotate(-180 216.546 360.161)" fill="white" stroke="white" stroke-width="3.2002"></circle><circle cx="463.142" cy="462.323" r="11.734" transform="rotate(-135 463.142 462.323)" fill="white" stroke="white" stroke-width="3.2002"></circle><circle cx="258.859" cy="258.005" r="11.734" transform="rotate(-135 258.859 258.005)" fill="white" stroke="white" stroke-width="3.2002"></circle><circle cx="258.856" cy="462.304" r="11.734" transform="rotate(-45 258.856 462.304)" fill="white" stroke="white" stroke-width="3.2002"></circle><circle cx="463.144" cy="258.02" r="11.734" transform="rotate(-45 463.144 258.02)" fill="white" stroke="white" stroke-width="3.2002"></circle><path d="M313.51 312.654L361 292.983L408.49 312.654L428.161 360.144L408.49 407.634L361 427.305L313.51 407.634L293.839 360.144L313.51 312.654Z" stroke="white" stroke-width="3.2002"></path></svg> 